# xmcd
#
# Track frame offsets:
# 150
# 8222
# 22123
# 28823
# 42240
# 49860
# 59095
# 76276
# 86417
# 96768
# 110507
# 121731
# 133425
# 143536
# 153889
# 163017
# 175965
# 190010
#
# Disc length: 2942 seconds
#
#
# Revision: 0
# Processed by: cddbd v1.5.2PL0 Copyright (c) Steve Scherf et al.
# Submitted via: FreeRIP 2.951 
#
DISCID=ee0b7c12
DTITLE=Phys Edison - Gift Of Thrift
DYEAR=2006
DGENRE=Hip-Hop
TTITLE0=Intro
TTITLE1=Wauconda
TTITLE2=Kermit Green
TTITLE3=Huffy
TTITLE4=Night Mirrors Ft. Deejay Pickel
TTITLE5=Purple Heart
TTITLE6=Blue Collar Ft. Haiku and Jay Fresh
TTITLE7=I Hate Golf
TTITLE8=Bully Bully
TTITLE9=Metrosexual Ft. Deejay Pickel
TTITLE10=Goodwill
TTITLE11=Butterface Ft. Deejay Pickel
TTITLE12=Eazy Rock
TTITLE13=Huffylike Freestyle
TTITLE14=Salvation Army
TTITLE15=Pick Ya Nose
TTITLE16=Dont Mess W/ My Father
TTITLE17=Gift Of Thrift Ft. Deejay Pickel
EXTD=
EXTT0=
EXTT1=
EXTT2=
EXTT3=
EXTT4=
EXTT5=
EXTT6=
EXTT7=
EXTT8=
EXTT9=
EXTT10=
EXTT11=
EXTT12=
EXTT13=
EXTT14=
EXTT15=
EXTT16=
EXTT17=
PLAYORDER=
